# xmcd
#
# Track frame offsets: 
#        150
#        27546
#        46665
#        70144
#        95808
#        122337
#        141347
#        167394
#        190723
#        214149
#        234722
#        256575
#        278455
#        306537
#
# Disc length: 4441 seconds
#
# Revision: 4
# Processed by: cddbd v1.5.2PL0 Copyright (c) Steve Scherf et al.
# Submitted via: ExactAudioCopyFreeDBPlugin 1.0
#
DISCID=c011570e
DTITLE=m-flo - MF10 -10th ANNIVERSARY BEST - (TRIPOD CD 1999-2002)
DYEAR=2009
DGENRE=JPop
TTITLE0=SOUND BOY THRILLER feeeeeeeeeeat. LISA
TTITLE1=Mirrorball Satellite 2012
TTITLE2=flo jack
TTITLE3=How You Like Me Now?
TTITLE4=been so long
TTITLE5=The Way We Were
TTITLE6=Yours only,
TTITLE7=Hands
TTITLE8=One Sugar Dream
TTITLE9=prism
TTITLE10=orbit-3
TTITLE11=Come Back To Me
TTITLE12=L.O.T.(Love Or Truth)
TTITLE13=come again
EXTD=YEAR: 2009
EXTT0=
EXTT1=
EXTT2=
EXTT3=
EXTT4=
EXTT5=
EXTT6=
EXTT7=
EXTT8=
EXTT9=
EXTT10=
EXTT11=
EXTT12=
EXTT13=
PLAYORDER=
